<svg width="19" height="18" viewBox="0 0 19 18" fill="none" xmlns="http://www.w3.org/2000/svg">
<g clip-path="url(#clip0_1247_551)">
<path fill-rule="evenodd" clip-rule="evenodd" d="M18.5 6.24C18.5 1.2 17.3 0 12.26 0H6.74C1.7 0 0.5 1.2 0.5 6.24V11.76C0.5 16.8 1.7 18 6.74 18H12.26C17.3 18 18.5 16.8 18.5 11.76V6.24ZM3.87507 5.625H5.18757C5.52301 5.625 5.64918 5.77181 5.77498 6.13526C6.4169 8.00517 7.49923 9.63933 7.94418 9.63933C8.11104 9.63933 8.18757 9.5625 8.18757 9.13874V7.20594C8.15744 6.65576 7.96526 6.41783 7.82291 6.2416C7.735 6.13277 7.6661 6.04746 7.6661 5.92668C7.6661 5.77989 7.79152 5.625 8.00007 5.625H10.0626C10.3407 5.625 10.4375 5.77373 10.4375 6.10746V8.70768C10.4375 8.98577 10.5583 9.0831 10.6417 9.0831C10.8086 9.0831 10.9477 8.98577 11.2536 8.67986C12.1991 7.62309 12.8665 5.99619 12.8665 5.99619C12.95 5.80153 13.1038 5.625 13.4376 5.625H14.7501C15.147 5.625 15.2304 5.82935 15.147 6.10746C14.992 6.81759 13.6022 8.81062 13.4044 9.09171L13.381 9.12483C13.242 9.34729 13.1864 9.45856 13.381 9.70882C13.4496 9.80481 13.5959 9.9481 13.7632 10.112C13.9354 10.2806 14.1298 10.4711 14.2849 10.6544C14.8487 11.2886 15.2735 11.8237 15.3919 12.1925C15.5001 12.5625 15.3126 12.75 14.9376 12.75H13.6251C13.2735 12.75 13.0965 12.5531 12.714 12.1276C12.5518 11.9472 12.3528 11.7258 12.0879 11.4609C11.3092 10.71 10.9755 10.6127 10.7808 10.6127C10.5166 10.6127 10.4376 10.6875 10.4376 11.0625V12.2395C10.4376 12.5625 10.3344 12.75 9.50007 12.75C8.10957 12.75 6.58148 11.9058 5.4969 10.3485C3.87003 8.06806 3.42506 6.34383 3.42506 5.99619C3.42506 5.80153 3.50007 5.625 3.87507 5.625Z" fill="white"/>
</g>
<defs>
<clipPath id="clip0_1247_551">
<rect width="18" height="18" fill="white" transform="translate(0.5)"/>
</clipPath>
</defs>
</svg>
