<svg width="140" height="39" viewBox="0 0 140 39" fill="none" xmlns="http://www.w3.org/2000/svg">
<g clip-path="url(#clip0_1247_504)">
<path d="M44.6975 37.304C44.225 37.4724 43.728 37.5507 43.2296 37.5355C42.9526 37.5403 42.6773 37.4887 42.4188 37.3835C42.1826 37.2861 41.9694 37.1351 41.7944 36.9413C41.6151 36.7428 41.476 36.5078 41.3857 36.2505C41.2861 35.951 41.2374 35.6353 41.2419 35.3179C41.2401 35.0151 41.2808 34.7136 41.3628 34.4233C41.4388 34.1711 41.5597 33.9366 41.7192 33.7325C41.8747 33.5336 42.0716 33.3752 42.2946 33.2697C42.5393 33.1548 42.8049 33.0982 43.0726 33.1039C43.4696 33.0989 43.8589 33.2191 44.1907 33.4493V31.135L44.6975 31.0383V37.304ZM44.1907 33.9432C44.1345 33.8978 44.0755 33.8562 44.0142 33.8189C43.9349 33.7732 43.853 33.7328 43.769 33.698C43.6697 33.6555 43.5668 33.6231 43.4617 33.6013C43.3491 33.5742 43.2339 33.5615 43.1184 33.5633C42.9014 33.5565 42.6861 33.6051 42.4907 33.7049C42.3261 33.7926 42.1846 33.9219 42.0788 34.0814C41.9699 34.2469 41.8933 34.4335 41.8532 34.6306C41.8056 34.8516 41.7815 35.0775 41.7813 35.3041C41.7467 35.7777 41.8873 36.247 42.1736 36.6132C42.3098 36.7624 42.4742 36.8795 42.6562 36.9569C42.8382 37.0343 43.0335 37.0702 43.2296 37.0622C43.4318 37.0667 43.6341 37.054 43.8344 37.0242C43.9524 37.007 44.0693 36.9816 44.1842 36.9483L44.1907 33.9432Z" fill="#1D1D1B"/>
<path d="M46.6688 31.888C46.6717 31.9441 46.6633 32.0002 46.6441 32.0526C46.625 32.105 46.5955 32.1525 46.5577 32.192C46.4857 32.2626 46.3911 32.3019 46.2929 32.3019C46.1946 32.3019 46.1 32.2626 46.0281 32.192C45.9568 32.1093 45.9174 32.0016 45.9174 31.8898C45.9174 31.778 45.9568 31.6702 46.0281 31.5875C46.1 31.5169 46.1946 31.4776 46.2929 31.4776C46.3911 31.4776 46.4857 31.5169 46.5577 31.5875C46.5951 31.6266 46.6243 31.6736 46.6434 31.7253C46.6626 31.7771 46.6712 31.8325 46.6688 31.888ZM46.5511 37.4457H46.0444V33.1799H46.5511V37.4457Z" fill="#1D1D1B"/>
<path d="M50.5298 36.9586C50.4852 36.9944 50.4382 37.0267 50.3893 37.0553C50.3138 37.0966 50.2363 37.1335 50.1571 37.1659C50.0564 37.2065 49.9525 37.2377 49.8466 37.2591C49.4864 37.3292 49.1152 37.3019 48.7677 37.1797C48.5537 37.1055 48.3582 36.9815 48.1956 36.817C48.0231 36.6354 47.8884 36.4177 47.8 36.178C47.6948 35.8728 47.6448 35.5494 47.6529 35.2247C47.6498 34.9376 47.6952 34.6522 47.7869 34.3819C47.8668 34.1271 47.9947 33.8921 48.1629 33.6911C48.3314 33.4978 48.5378 33.3457 48.7677 33.2455C49.0215 33.135 49.2942 33.081 49.5687 33.0866C49.8711 33.0797 50.1734 33.1051 50.471 33.1626C50.6966 33.2144 50.8829 33.2662 51.03 33.3146V37.2108C51.0555 37.4637 51.0264 37.7194 50.9449 37.9587C50.8633 38.198 50.7315 38.4147 50.5593 38.5924C50.1455 38.8957 49.6458 39.0395 49.1437 39C48.907 39.0019 48.6706 38.9811 48.4375 38.9378C48.2535 38.9035 48.0721 38.855 47.8948 38.7928L47.9962 38.3057C48.1603 38.3805 48.3328 38.4327 48.5094 38.4612C48.7247 38.5067 48.9437 38.5298 49.1633 38.5302C49.5316 38.5631 49.8992 38.4593 50.2029 38.2366C50.3236 38.1045 50.4154 37.946 50.4718 37.7724C50.5283 37.5987 50.5481 37.4141 50.5298 37.2315V36.9586ZM50.5298 33.7049C50.4416 33.6773 50.3271 33.6531 50.1866 33.6254C49.9871 33.5981 49.7861 33.5865 49.585 33.5909C49.3854 33.5865 49.1871 33.6265 49.0031 33.7083C48.8358 33.7882 48.6874 33.9062 48.5683 34.0537C48.4444 34.2057 48.352 34.3834 48.2969 34.5753C48.2306 34.7893 48.1986 35.0134 48.2021 35.2385C48.1969 35.4851 48.2335 35.7308 48.31 35.9639C48.3743 36.145 48.4709 36.3115 48.5944 36.4543C48.7078 36.5772 48.8465 36.6706 48.9998 36.7272C49.1468 36.7875 49.3032 36.818 49.4608 36.817C49.6745 36.8192 49.887 36.7818 50.0885 36.7065C50.2485 36.6537 50.398 36.5706 50.5298 36.4612V33.7049Z" fill="#1D1D1B"/>
<path d="M53.0014 31.888C53.0035 31.944 52.9947 31.9999 52.9756 32.0522C52.9565 32.1044 52.9274 32.152 52.8903 32.192C52.8552 32.228 52.8138 32.2563 52.7683 32.2753C52.7229 32.2943 52.6743 32.3035 52.6255 32.3025C52.5493 32.2975 52.476 32.2697 52.4142 32.2223C52.3524 32.1749 52.3047 32.11 52.2765 32.035C52.2484 31.96 52.2411 31.8781 52.2554 31.7988C52.2697 31.7196 52.3051 31.6463 52.3574 31.5875C52.3928 31.5511 52.4348 31.5225 52.4808 31.5036C52.5269 31.4846 52.576 31.4755 52.6255 31.477C52.6744 31.4752 52.7232 31.4841 52.7688 31.5031C52.8143 31.5221 52.8557 31.5509 52.8903 31.5875C52.9272 31.627 52.9561 31.674 52.9752 31.7257C52.9943 31.7773 53.0032 31.8326 53.0014 31.888ZM52.8837 37.4457H52.3737V33.1799H52.8837V37.4457Z" fill="#1D1D1B"/>
<path d="M54.7014 33.1799H56.3132V33.6323H54.7014V35.9017C54.6967 36.1004 54.7164 36.299 54.7603 36.4923C54.7893 36.6204 54.8477 36.739 54.9303 36.8377C55.0008 36.9198 55.0931 36.9776 55.1951 37.0035C55.3023 37.0295 55.412 37.0423 55.522 37.0415C55.6971 37.048 55.8719 37.0223 56.0386 36.9655C56.1436 36.9262 56.2453 36.8777 56.3426 36.8205L56.4668 37.266C56.3467 37.3394 56.2181 37.3962 56.0843 37.4353C55.8935 37.502 55.6936 37.5347 55.4926 37.532C55.2781 37.5383 55.0642 37.5031 54.8616 37.4284C54.7013 37.3658 54.5608 37.2569 54.4562 37.1141C54.3619 36.9626 54.2984 36.792 54.2699 36.6132C54.2247 36.3686 54.2039 36.1197 54.2078 35.8706V31.9226L54.7145 31.8224L54.7014 33.1799Z" fill="#1D1D1B"/>
<path d="M58.4807 33.0762C58.7108 33.0698 58.9398 33.1121 59.1542 33.2006C59.3272 33.2704 59.4819 33.3829 59.6053 33.5287C59.7222 33.6742 59.8071 33.8452 59.8538 34.0296C59.9077 34.233 59.9341 34.4435 59.9323 34.6548V37.3489C59.8572 37.3716 59.7807 37.3889 59.7034 37.4007L59.3765 37.4629C59.2457 37.4871 59.1019 37.5044 58.9417 37.5182C58.7815 37.532 58.6148 37.5389 58.4513 37.5389C58.2528 37.5413 58.0549 37.5158 57.8628 37.4629C57.6926 37.4188 57.5325 37.3389 57.392 37.228C57.2594 37.1187 57.153 36.9779 57.0815 36.817C56.9993 36.6228 56.9602 36.4113 56.967 36.1987C56.9622 35.9941 57.0048 35.7913 57.0913 35.6081C57.1745 35.442 57.2959 35.3007 57.4444 35.197C57.6085 35.0834 57.7915 35.0037 57.9838 34.9622C58.2069 34.9093 58.4351 34.8838 58.6638 34.8862C58.74 34.8813 58.8164 34.8813 58.8926 34.8862C58.9755 34.8862 59.0539 34.8965 59.128 34.9173L59.3242 34.9587C59.3626 34.9665 59.3999 34.9793 59.4353 34.9967V34.7307C59.437 34.5862 59.4272 34.4418 59.4059 34.299C59.3874 34.1631 59.3405 34.0334 59.2686 33.919C59.1948 33.8024 59.0934 33.7083 58.9744 33.6462C58.8153 33.5707 58.6419 33.5352 58.4676 33.5425C58.2478 33.5354 58.028 33.5586 57.8138 33.6116C57.6667 33.6531 57.562 33.6911 57.4869 33.7152L57.4149 33.2455C57.548 33.1904 57.686 33.1499 57.8269 33.1246C58.0427 33.0854 58.2618 33.0692 58.4807 33.0762ZM58.5265 37.0588C58.7226 37.0588 58.8959 37.0519 59.0463 37.0381C59.1934 37.0381 59.3176 37.007 59.4223 36.9863V35.4837C59.3347 35.4448 59.2438 35.4147 59.1509 35.3939C58.9808 35.3591 58.8076 35.344 58.6344 35.349C58.5032 35.3501 58.3722 35.3593 58.2421 35.3767C58.1116 35.3955 57.9854 35.4388 57.8694 35.5045C57.7574 35.5643 57.6609 35.6521 57.5882 35.7601C57.5085 35.8903 57.4696 36.0438 57.477 36.1987C57.4678 36.3401 57.489 36.4818 57.5392 36.6132C57.5857 36.7197 57.6578 36.8114 57.7484 36.8792C57.8484 36.9476 57.9591 36.9968 58.0753 37.0242C58.2218 37.0538 58.371 37.0653 58.5199 37.0588H58.5265Z" fill="#1D1D1B"/>
<path d="M62.2535 37.5216C62.1018 37.5207 61.9511 37.4974 61.8056 37.4526C61.6843 37.4164 61.5725 37.3514 61.4786 37.2626C61.3868 37.1667 61.3194 37.0479 61.2825 36.9172C61.2338 36.753 61.2117 36.5814 61.2171 36.4094V31.135L61.7238 31.0383V36.406C61.7195 36.5133 61.7316 36.6206 61.7598 36.7237C61.7773 36.7966 61.8139 36.8628 61.8654 36.9147C61.9168 36.9666 61.9811 37.0022 62.0508 37.0173C62.139 37.042 62.2285 37.0616 62.3188 37.0761L62.2535 37.5216Z" fill="#1D1D1B"/>
<path d="M62.77 34.7964H64.5387V35.3145H62.77V34.7964Z" fill="#1D1D1B"/>
<path d="M66.6539 33.0762C66.885 33.0698 67.1151 33.1121 67.3306 33.2006C67.5032 33.2712 67.6578 33.3836 67.7818 33.5287C67.8987 33.6742 67.9836 33.8452 68.0303 34.0296C68.0841 34.233 68.1105 34.4435 68.1087 34.6547V37.3489C68.0336 37.3716 67.9572 37.3889 67.8799 37.4007L67.5529 37.4629C67.4189 37.4871 67.2751 37.5044 67.1181 37.5182C66.9612 37.532 66.7912 37.5389 66.6277 37.5389C66.4292 37.5415 66.2313 37.516 66.0393 37.4629C65.869 37.4187 65.7089 37.3389 65.5685 37.228C65.431 37.1194 65.3191 36.9788 65.2416 36.817C65.1621 36.622 65.1242 36.4109 65.1304 36.1987C65.1256 35.9941 65.1682 35.7913 65.2546 35.6081C65.336 35.4406 65.4578 35.2988 65.6077 35.197C65.7718 35.0834 65.9549 35.0037 66.1472 34.9622C66.3703 34.9093 66.5985 34.8838 66.8272 34.8862C66.9034 34.8813 66.9798 34.8813 67.056 34.8862C67.1388 34.8862 67.2173 34.8965 67.2914 34.9173L67.4876 34.9587C67.5256 34.9677 67.5629 34.9804 67.5987 34.9967V34.7307C67.5988 34.5863 67.589 34.442 67.5693 34.299C67.5492 34.1636 67.5025 34.0341 67.432 33.919C67.3574 33.8032 67.2562 33.7093 67.1377 33.6462C66.9786 33.5711 66.8052 33.5356 66.631 33.5425C66.4111 33.5354 66.1913 33.5586 65.9772 33.6116C65.83 33.6531 65.7221 33.6911 65.6502 33.7152L65.5783 33.2455C65.7112 33.1899 65.8493 33.1494 65.9902 33.1246C66.2093 33.0847 66.4317 33.0685 66.6539 33.0762ZM66.7029 37.0588C66.8991 37.0588 67.0724 37.0519 67.2227 37.0381C67.3699 37.0381 67.4941 37.007 67.5987 36.9863V35.4837C67.5112 35.4448 67.4203 35.4147 67.3274 35.3939C67.1572 35.3591 66.984 35.344 66.8108 35.349C66.6796 35.35 66.5486 35.3592 66.4185 35.3766C66.2881 35.3955 66.1619 35.4388 66.0458 35.5045C65.9335 35.5652 65.8362 35.6527 65.7614 35.7601C65.6844 35.8914 65.6468 36.0444 65.6535 36.1987C65.6499 36.3377 65.6755 36.4757 65.7287 36.6028C65.7741 36.71 65.8465 36.802 65.9379 36.8688C66.0376 36.9378 66.1484 36.9869 66.2648 37.0139C66.4056 37.0456 66.5492 37.0606 66.6931 37.0588H66.7029Z" fill="#1D1D1B"/>
<path d="M71.7213 33.6323H69.9166V37.4318H69.4066V33.1799H71.7213V33.6323Z" fill="#1D1D1B"/>
<path d="M72.2672 35.3076C72.2611 34.9745 72.3132 34.6431 72.4209 34.3301C72.5118 34.0755 72.6471 33.8412 72.8197 33.6393C72.9743 33.4561 73.1667 33.3131 73.3821 33.2213C73.5894 33.1308 73.8115 33.0839 74.0359 33.0831C74.2572 33.0728 74.478 33.1135 74.6829 33.2024C74.8879 33.2913 75.072 33.4262 75.2227 33.5978C75.5493 34.0483 75.7065 34.6106 75.664 35.1763C75.664 35.2178 75.664 35.2627 75.664 35.3076C75.664 35.3525 75.664 35.3905 75.664 35.4319H72.8067C72.7943 35.8668 72.9248 36.2927 73.1761 36.6374C73.3179 36.7875 73.4892 36.9028 73.6779 36.975C73.8667 37.0473 74.0681 37.0747 74.268 37.0553C74.4885 37.0633 74.7089 37.0365 74.9219 36.9759C75.0424 36.9369 75.1603 36.8896 75.275 36.8343L75.3665 37.2971C75.2361 37.3648 75.0991 37.4169 74.9578 37.4526C74.7267 37.5189 74.4879 37.5503 74.2484 37.5458C73.9392 37.5541 73.6314 37.4977 73.3428 37.38C73.105 37.2798 72.8932 37.1211 72.7249 36.9172C72.562 36.7167 72.4426 36.4809 72.3751 36.2264C72.2973 35.9272 72.261 35.6177 72.2672 35.3076ZM75.1377 34.9622C75.1486 34.5917 75.044 34.2276 74.8401 33.9259C74.7431 33.8025 74.6202 33.7045 74.4812 33.6398C74.3422 33.575 74.1909 33.5453 74.0392 33.5529C73.8702 33.5495 73.7029 33.5898 73.5521 33.6703C73.4093 33.7465 73.2817 33.8509 73.1761 33.9778C73.0683 34.1117 72.9841 34.2649 72.9276 34.4302C72.8678 34.6022 72.8326 34.7827 72.823 34.9656L75.1377 34.9622Z" fill="#1D1D1B"/>
<path d="M80.0056 37.4456H79.4989V35.4561H77.3019V37.4456H76.7952V33.1799H77.3019V35.0036H79.4989V33.1799H80.0056V37.4456Z" fill="#1D1D1B"/>
<path d="M83.9549 33.1799V33.6323H82.6275V37.4318H82.1175V33.6323H80.8098V33.1799H83.9549Z" fill="#1D1D1B"/>
<path d="M86.4166 37.5389C86.1336 37.5454 85.8522 37.4914 85.5895 37.38C85.3576 37.284 85.1511 37.1299 84.988 36.931C84.8262 36.7274 84.703 36.4929 84.6251 36.2402C84.5396 35.9483 84.4977 35.6442 84.5008 35.3387C84.4969 35.0283 84.5399 34.7193 84.6283 34.4233C84.7053 34.1576 84.832 33.9109 85.001 33.698C85.1623 33.5004 85.3633 33.3434 85.5895 33.2386C85.8329 33.1272 86.0959 33.0718 86.3611 33.0762C86.5674 33.075 86.7733 33.0959 86.9757 33.1384C87.1287 33.164 87.2773 33.2128 87.417 33.2835L87.2895 33.7463C87.1782 33.6882 87.0608 33.6441 86.9397 33.6151C86.7666 33.5776 86.5901 33.5603 86.4134 33.5633C86.2212 33.5506 86.0289 33.5855 85.8518 33.6653C85.6748 33.7451 85.5178 33.8674 85.3934 34.0227C85.1432 34.4035 85.0212 34.862 85.0468 35.3248C85.0453 35.5577 85.0717 35.7898 85.1253 36.0157C85.1698 36.215 85.2558 36.4015 85.377 36.5614C85.5003 36.7131 85.6561 36.8315 85.8314 36.9068C86.0465 36.9972 86.2769 37.0396 86.5082 37.0312C86.6939 37.0366 86.8793 37.0109 87.0574 36.9552C87.1695 36.9192 87.2788 36.8741 87.3843 36.8205L87.4922 37.2799C87.3528 37.355 87.2043 37.4096 87.0509 37.4422C86.844 37.5018 86.631 37.5343 86.4166 37.5389Z" fill="#1D1D1B"/>
<path d="M91.059 33.1799V33.6323H89.7317V37.4318H89.2217V33.6323H87.914V33.1799H91.059Z" fill="#1D1D1B"/>
<path d="M93.1546 33.0866C93.3115 33.0866 93.4815 33.0866 93.681 33.1177C93.8708 33.1329 94.0573 33.1796 94.2335 33.2558C94.4026 33.3306 94.5511 33.4495 94.665 33.6013C94.7913 33.7866 94.8536 34.0122 94.8415 34.2403C94.8432 34.4407 94.7823 34.6362 94.6683 34.7964C94.5483 34.9579 94.3856 35.0781 94.2008 35.1418C94.4476 35.1948 94.6701 35.3349 94.8317 35.539C94.9677 35.7321 95.0369 35.9686 95.0279 36.2091C95.0401 36.4515 94.9831 36.6921 94.8644 36.8999C94.7563 37.0715 94.606 37.2088 94.4296 37.2971C94.2375 37.391 94.0321 37.4505 93.8215 37.4733C93.5916 37.5029 93.3601 37.5167 93.1284 37.5147C92.8811 37.5178 92.634 37.4993 92.3896 37.4595C92.2078 37.4282 92.0277 37.3867 91.8502 37.3351V33.2697C92.0181 33.2146 92.1896 33.1731 92.3634 33.1453C92.6252 33.1031 92.8898 33.0834 93.1546 33.0866ZM92.3569 34.9622H93.2788C93.5407 34.9736 93.8012 34.9166 94.0373 34.7964C94.1309 34.7446 94.208 34.665 94.2592 34.5674C94.3103 34.4698 94.3332 34.3584 94.325 34.2472C94.3331 34.1099 94.2974 33.9737 94.2237 33.8603C94.1556 33.7663 94.0638 33.6944 93.9588 33.6531C93.839 33.6015 93.712 33.5712 93.5829 33.5633C93.4428 33.5477 93.302 33.5408 93.1611 33.5425C92.9962 33.5409 92.8313 33.5502 92.6675 33.5702C92.5625 33.5775 92.4584 33.596 92.3569 33.6254V34.9622ZM92.3569 35.4077V36.9863C92.3981 37.001 92.441 37.0103 92.4844 37.0139L92.6871 37.0381C92.7623 37.0381 92.844 37.0381 92.929 37.0588H93.1775C93.3469 37.0582 93.5161 37.0466 93.6842 37.0243C93.8303 37.0055 93.9727 36.9623 94.106 36.8964C94.2208 36.8354 94.3205 36.7466 94.3969 36.6374C94.4745 36.5101 94.5122 36.3603 94.5048 36.2091C94.509 36.073 94.4785 35.9382 94.4165 35.8188C94.3509 35.7154 94.2607 35.632 94.155 35.577C94.0377 35.5137 93.9121 35.4694 93.7823 35.4457C93.628 35.4172 93.4715 35.4033 93.3148 35.4043L92.3569 35.4077Z" fill="#1D1D1B"/>
<path d="M99.5624 35.3145C99.5661 35.6267 99.5197 35.9374 99.4251 36.2333C99.3424 36.4882 99.2124 36.7231 99.0426 36.9241C98.8756 37.1204 98.6707 37.2765 98.4417 37.382C98.2127 37.4875 97.965 37.5398 97.7153 37.5355C97.4606 37.5398 97.2083 37.4844 96.9764 37.3731C96.7538 37.2681 96.5545 37.1152 96.3912 36.9241C96.2214 36.7231 96.0913 36.4882 96.0087 36.2333C95.8256 35.6372 95.8256 34.9952 96.0087 34.3991C96.0932 34.1451 96.223 33.9106 96.3912 33.7083C96.5534 33.5142 96.7529 33.3588 96.9764 33.2524C97.2088 33.1428 97.4608 33.0874 97.7153 33.0901C97.9718 33.0874 98.226 33.1427 98.4606 33.2524C98.6878 33.3526 98.8919 33.5034 99.0589 33.6945C99.2271 33.8968 99.3569 34.1313 99.4414 34.3853C99.5316 34.6855 99.5725 34.9997 99.5624 35.3145ZM99.023 35.3145C99.0451 34.8597 98.9206 34.4104 98.6699 34.0399C98.5543 33.891 98.4088 33.771 98.244 33.6886C98.0792 33.6063 97.8992 33.5635 97.7169 33.5635C97.5346 33.5635 97.3545 33.6063 97.1897 33.6886C97.0249 33.771 96.8795 33.891 96.7639 34.0399C96.5332 34.4203 96.4106 34.8627 96.4106 35.3145C96.4106 35.7663 96.5332 36.2086 96.7639 36.589C96.8805 36.7363 97.0263 36.8548 97.1909 36.9361C97.3556 37.0174 97.5351 37.0596 97.7169 37.0596C97.8986 37.0596 98.0782 37.0174 98.2428 36.9361C98.4075 36.8548 98.5533 36.7363 98.6699 36.589C98.9215 36.2191 99.0461 35.7694 99.023 35.3145Z" fill="#1D1D1B"/>
<path d="M20.2695 6.68701C22.5601 6.68701 24.3135 7.13028 25.5297 8.01683C26.7459 8.90338 27.3561 10.2608 27.3605 12.0892C27.3605 14.3643 26.298 15.9071 24.173 16.7177C24.465 17.0884 24.7919 17.5409 25.1537 18.0751C25.5199 18.607 25.8959 19.1839 26.2751 19.8022C26.6543 20.4204 27.0238 21.0629 27.3769 21.7157C27.7299 22.3685 28.0307 23.011 28.3184 23.6396H25.0916C24.7996 23.0593 24.4857 22.4745 24.1501 21.885C23.8144 21.2955 23.4744 20.7198 23.1301 20.1579C22.7879 19.6145 22.4479 19.0918 22.1101 18.5898C21.7831 18.0993 21.4562 17.6572 21.1685 17.2703C20.956 17.2703 20.7729 17.2945 20.6225 17.2945H18.7852V23.6396H15.8984V7.09805C16.6386 6.93138 17.3892 6.82171 18.1444 6.76991C18.9389 6.71464 19.6516 6.68701 20.2695 6.68701ZM20.482 9.32593C19.8717 9.32593 19.3061 9.35011 18.7852 9.39846V14.8248H20.0471C20.668 14.8297 21.2885 14.7894 21.9041 14.7039C22.3722 14.644 22.8263 14.4954 23.2445 14.2653C23.5886 14.0737 23.8717 13.7794 24.0585 13.419C24.2556 12.9977 24.35 12.5311 24.3332 12.0616C24.3467 11.6089 24.2522 11.1599 24.0585 10.7559C23.8759 10.3995 23.6017 10.1049 23.2674 9.90621C22.8864 9.68335 22.4715 9.53256 22.0414 9.46064C21.5264 9.36721 21.0045 9.32214 20.482 9.32593Z" fill="#E30613"/>
<path d="M29.7667 17.367C29.7479 16.3681 29.9076 15.3744 30.2375 14.438C30.5154 13.6563 30.9415 12.9429 31.4896 12.3413C31.9953 11.7931 32.6046 11.3635 33.2779 11.0806C33.9329 10.8033 34.6319 10.6603 35.3375 10.6592C36.9874 10.6592 38.2755 11.1992 39.2018 12.2792C40.1281 13.3591 40.5902 14.971 40.588 17.1149C40.588 17.2772 40.588 17.4603 40.588 17.6606C40.588 17.861 40.5684 18.044 40.5553 18.2029H32.6338C32.6454 18.6488 32.7416 19.0877 32.9169 19.4936C33.0921 19.8994 33.3427 20.264 33.6539 20.5655C34.2587 21.1251 35.1316 21.4014 36.2693 21.4014C36.8887 21.4064 37.5068 21.3416 38.1131 21.208C38.5601 21.1139 38.9979 20.9763 39.4208 20.7969L39.7903 23.1941C39.5866 23.2966 39.3756 23.382 39.1593 23.4497C38.8912 23.536 38.5839 23.6189 38.2406 23.6914C37.8974 23.764 37.5279 23.8227 37.1324 23.871C36.7287 23.9214 36.3226 23.9456 35.9162 23.9436C34.9772 23.9662 34.0428 23.7985 33.1635 23.4497C32.4301 23.1505 31.7714 22.6779 31.2379 22.068C30.7281 21.4693 30.3447 20.7629 30.1132 19.9956C29.8694 19.1437 29.7525 18.2569 29.7667 17.367ZM37.8156 16.0579C37.8169 15.668 37.7618 15.2801 37.6522 14.9077C37.5564 14.564 37.3976 14.2436 37.1847 13.9648C36.9797 13.6991 36.7219 13.4845 36.4295 13.3361C36.0958 13.1733 35.7311 13.0941 35.3637 13.1047C34.9753 13.0944 34.59 13.1808 34.2391 13.3568C33.9286 13.5198 33.6518 13.7465 33.425 14.0235C33.2 14.3033 33.0249 14.624 32.9085 14.9699C32.7878 15.322 32.7034 15.6867 32.6567 16.0579H37.8156Z" fill="#E30613"/>
<path d="M46.2242 20.8833H43.3865V23.8814H46.2242V20.8833Z" fill="#E30613"/>
<path d="M46.2242 11.167H43.3865V14.1651H46.2242V11.167Z" fill="#E30613"/>
<path d="M53.616 10.6593C54.4027 10.6375 55.187 10.7602 55.934 11.022C56.5046 11.227 57.0196 11.5755 57.4346 12.0375C57.8176 12.4926 58.0932 13.0371 58.2388 13.6264C58.4051 14.2936 58.4865 14.9812 58.4807 15.6712V23.3496C58.0492 23.4463 57.4051 23.5637 56.542 23.695C55.5728 23.8391 54.5949 23.9084 53.616 23.9022C52.9564 23.9064 52.2984 23.8322 51.6545 23.6812C51.1089 23.5614 50.5918 23.3264 50.1343 22.9904C49.7145 22.6614 49.3776 22.2285 49.1535 21.7296C48.9013 21.1279 48.7806 20.4738 48.8004 19.8161C48.7697 19.174 48.8982 18.5347 49.1731 17.9612C49.4371 17.4667 49.8107 17.0471 50.2618 16.7385C50.7488 16.4064 51.2897 16.1722 51.8572 16.0477C52.4782 15.9072 53.1117 15.8377 53.7468 15.8404C54.0692 15.8415 54.3912 15.8623 54.7113 15.9026C55.0733 15.9482 55.4324 16.0162 55.7868 16.1064V15.647C55.7877 15.3208 55.7492 14.9958 55.6724 14.6798C55.6005 14.3797 55.4628 14.1016 55.2703 13.8681C55.0639 13.6246 54.8048 13.4373 54.5151 13.3224C54.1361 13.1827 53.7362 13.1171 53.3349 13.129C52.7425 13.1247 52.1509 13.1732 51.5662 13.274C51.1217 13.3492 50.6842 13.4648 50.2585 13.6194L49.9152 11.2465C50.4168 11.0786 50.9293 10.9493 51.4485 10.8596C52.1637 10.723 52.8893 10.6559 53.616 10.6593ZM53.8482 21.5811C54.5049 21.5985 55.1617 21.5499 55.8097 21.436V18.1926C55.5954 18.127 55.3769 18.0773 55.1559 18.0441C54.8313 17.9928 54.5033 17.9685 54.1751 17.9716C53.8644 17.9721 53.554 17.9963 53.2466 18.0441C52.9527 18.0862 52.6669 18.1772 52.3999 18.3135C52.1549 18.4335 51.9448 18.6208 51.7918 18.8558C51.6314 19.1188 51.5515 19.4275 51.5629 19.7401C51.5629 20.4309 51.7656 20.9145 52.1808 21.1839C52.6893 21.4718 53.262 21.6091 53.8384 21.5811H53.8482Z" fill="#1D1D1B"/>
<path d="M61.1975 17.3188C61.1909 16.4241 61.3302 15.5349 61.6094 14.6902C61.8665 13.9089 62.2676 13.1893 62.7896 12.5729C63.3105 11.9682 63.9482 11.4888 64.6596 11.1671C65.4435 10.8182 66.2873 10.6453 67.1378 10.6593C68.2369 10.6531 69.3266 10.8749 70.3449 11.3121L69.7499 13.7093C69.3973 13.5605 69.033 13.445 68.6612 13.3638C68.2318 13.264 67.7932 13.2154 67.3535 13.2188C66.2638 13.2188 65.4377 13.578 64.8754 14.2964C64.3131 15.0149 64.0298 16.0281 64.0254 17.336C64.0254 18.5968 64.2968 19.5915 64.8297 20.3273C65.3625 21.063 66.2681 21.4291 67.5366 21.4291C68.0053 21.4294 68.4729 21.3809 68.9326 21.284C69.3398 21.209 69.7393 21.0934 70.1259 20.9386L70.5149 23.3565C70.0725 23.564 69.6066 23.7103 69.1287 23.7917C68.4978 23.923 67.856 23.9878 67.2129 23.9851C66.3016 24.0076 65.395 23.8398 64.5452 23.4912C63.8262 23.1881 63.1821 22.7155 62.6621 22.1096C62.1539 21.4988 61.7749 20.7805 61.5506 20.0026C61.3012 19.1329 61.182 18.2274 61.1975 17.3188Z" fill="#1D1D1B"/>
<path d="M72.5451 7.63007L75.3207 7.1465V10.9736H79.5708V13.4191H75.3207V18.5795C75.3207 19.595 75.4733 20.3215 75.7784 20.759C76.0836 21.1965 76.6034 21.4153 77.3379 21.4153C77.7898 21.4226 78.2407 21.3657 78.6783 21.246C78.9927 21.1584 79.3026 21.0534 79.6068 20.9317L80.0645 23.2563C79.653 23.4334 79.2315 23.5834 78.8025 23.7053C78.2048 23.8689 77.589 23.9467 76.9717 23.9368C76.2413 23.9601 75.5134 23.8358 74.8271 23.5706C74.2923 23.3619 73.8212 23.0037 73.4638 22.5344C73.1111 22.0404 72.8676 21.4691 72.7511 20.8626C72.6058 20.1267 72.5367 19.3762 72.5451 18.6244V7.63007Z" fill="#1D1D1B"/>
<path d="M85.3607 7.25358C85.3716 7.4973 85.3323 7.74063 85.2453 7.96669C85.1584 8.19274 85.0259 8.3961 84.8572 8.56267C84.534 8.87932 84.1079 9.05247 83.6672 9.04624C83.2179 9.05676 82.7822 8.88351 82.451 8.56267C82.2818 8.39628 82.1489 8.19303 82.0614 7.96699C81.9739 7.74096 81.9339 7.49754 81.9443 7.25358C81.9332 7.00594 81.9728 6.75868 82.0602 6.52862C82.1476 6.29856 82.2809 6.09109 82.451 5.9203C82.7822 5.59947 83.2179 5.42622 83.6672 5.43673C84.1079 5.43051 84.534 5.60366 84.8572 5.9203C85.0267 6.0914 85.1594 6.29901 85.2462 6.52906C85.3331 6.7591 85.3721 7.0062 85.3607 7.25358ZM85.0632 23.6259H82.2908V10.9736H85.0632V23.6259Z" fill="#1D1D1B"/>
<path d="M91.6834 23.6397C90.9141 21.9795 90.1273 20.0705 89.323 17.9129C88.4787 15.641 87.7455 13.3249 87.1261 10.9736H90.0684C90.2384 11.6852 90.4346 12.4474 90.6569 13.2602C90.8792 14.0788 91.1146 14.894 91.3696 15.7092C91.6246 16.5243 91.8861 17.3153 92.1542 18.0821C92.4223 18.8489 92.6708 19.5397 92.9029 20.1546C93.1317 19.5397 93.3769 18.8489 93.6385 18.0821C93.9 17.3153 94.1572 16.5243 94.41 15.7092C94.6759 14.894 94.9178 14.0777 95.1358 13.2602C95.3537 12.4428 95.5521 11.6806 95.7308 10.9736H98.5979C97.9771 13.3244 97.2438 15.6405 96.401 17.9129C95.5968 20.0682 94.8099 21.9772 94.0406 23.6397H91.6834Z" fill="#1D1D1B"/>
<path d="M100.651 11.3985C101.337 11.2029 102.034 11.0495 102.737 10.9391C103.683 10.7817 104.64 10.7043 105.597 10.7076C106.433 10.6802 107.266 10.8245 108.049 11.1325C108.66 11.3792 109.2 11.7871 109.619 12.3172C110.018 12.8593 110.295 13.49 110.429 14.1617C110.595 14.9369 110.675 15.7297 110.668 16.5243V23.6397H107.886V16.9803C107.893 16.4017 107.85 15.8236 107.758 15.2532C107.698 14.8407 107.557 14.4457 107.347 14.0926C107.161 13.7941 106.893 13.5636 106.578 13.4329C106.193 13.2848 105.785 13.2145 105.375 13.2257C105.008 13.2268 104.641 13.251 104.277 13.2982C103.894 13.3466 103.623 13.388 103.427 13.4191V23.6397H100.654L100.651 11.3985Z" fill="#1D1D1B"/>
<path d="M124.906 17.2946C124.917 18.2257 124.778 19.1521 124.494 20.0337C124.243 20.8136 123.845 21.5316 123.323 22.1441C122.814 22.7246 122.193 23.1828 121.502 23.4877C120.759 23.8175 119.958 23.9821 119.152 23.9713C118.349 23.9836 117.553 23.8189 116.814 23.4877C116.126 23.1775 115.509 22.7159 115.003 22.1338C114.481 21.5239 114.08 20.8099 113.823 20.0337C113.53 19.1553 113.386 18.2292 113.398 17.298C113.386 16.3702 113.53 15.4474 113.823 14.5728C114.082 13.7976 114.487 13.0857 115.013 12.4796C115.522 11.8992 116.143 11.441 116.834 11.136C117.568 10.8134 118.357 10.6524 119.152 10.6628C119.95 10.6531 120.742 10.8141 121.48 11.136C122.173 11.4368 122.795 11.8956 123.301 12.4796C123.821 13.0883 124.222 13.7996 124.481 14.5728C124.774 15.4463 124.918 16.3679 124.906 17.2946ZM122.065 17.2946C122.065 16.0338 121.806 15.0391 121.296 14.3034C121.041 13.96 120.716 13.6824 120.344 13.4916C119.973 13.3007 119.565 13.2015 119.152 13.2015C118.739 13.2015 118.331 13.3007 117.959 13.4916C117.588 13.6824 117.262 13.96 117.007 14.3034C116.497 15.0391 116.239 16.0304 116.239 17.2946C116.239 18.5588 116.497 19.5812 117.007 20.3204C117.26 20.6672 117.585 20.9481 117.957 21.1414C118.329 21.3347 118.737 21.4353 119.152 21.4353C119.566 21.4353 119.975 21.3347 120.347 21.1414C120.719 20.9481 121.044 20.6672 121.296 20.3204C121.806 19.5812 122.065 18.5691 122.065 17.2946Z" fill="#1D1D1B"/>
<path d="M10.9619 2.68727V0H2.54349H0V2.68727V33.7567V36.4474H2.54349H10.9619V33.7567H2.54349V2.68727H10.9619Z" fill="#1D1D1B"/>
<path d="M137.457 0H129.035V2.68727H137.457V33.7567H129.035V36.4474H137.457H140V33.7567V2.68727V0H137.457Z" fill="#1D1D1B"/>
</g>
<defs>
<clipPath id="clip0_1247_504">
<rect width="140" height="39" fill="white"/>
</clipPath>
</defs>
</svg>
